<?xml version="1.0" encoding="utf-8" ?><svg xmlns="http://www.w3.org/2000/svg" xmlns:xlink="http://www.w3.org/1999/xlink" width="745" height="602" viewBox="0 0 745 602"><path fill="#FED700" d="M278.917 175.123C289.898 173.809 298.755 185.014 305.583 191.856L324.214 210.527L339.351 225.54C347.217 233.467 354.15 239.655 351.792 251.947C350.204 260.221 340.983 267.804 335.157 273.604L315.242 293.423C308.148 300.499 300.745 308.702 293.123 315.089C289.746 317.919 285.811 319.023 281.577 319.886C268.288 319.926 263.313 312.605 254.688 303.969L234.831 284.054L219.657 268.755C213.372 262.395 208.124 258.304 207.307 248.727C206.249 236.312 216.305 228.397 224.251 220.496L240.395 204.366L253.999 190.643C261.887 182.624 266.897 176.037 278.917 175.123ZM306.785 222.819C306.443 227.539 305.504 232.514 304.787 237.233L301.199 260.994C299.831 270.074 298.471 284.003 296.43 292.513C290.359 293.145 284.278 293.345 278.286 293.929C281.177 294.67 282.937 295.14 285.925 295.479L298.928 297.666L311.049 218.11C305.595 217.452 296.811 216.59 291.368 216.513C293.971 218.886 302.89 220.871 306.785 222.819ZM276.548 298.124C276.436 298.973 276.333 299.824 276.24 300.677C276.103 301.989 275.938 302.994 276.727 303.968C279.836 304.839 293.359 306.169 296.949 306.344C302.678 301.463 308.867 294.186 314.423 288.642C324.511 278.576 335.736 268.654 344.707 257.634C347.211 254.072 347.954 248.368 347.315 244.253C346.025 235.949 338.881 229.826 333.181 224.167L317.386 208.563L303.126 194.134C299.915 190.878 296.017 186.695 292.406 184.037C291.746 188.881 291.215 193.742 290.529 198.584C289.985 202.42 289.125 206.146 288.877 210.009C296.094 211.267 306.35 212.137 313.224 214.194C316.024 215.032 312.659 231.201 312.174 234.351L308.495 258.701C307.444 265.728 303.63 297.117 301.421 301.032C299.547 301.656 280.393 298.635 276.548 298.124Z"/><path fill="#012E4C" d="M288.877 210.009C296.094 211.267 306.35 212.137 313.224 214.194C316.024 215.032 312.659 231.201 312.174 234.351L308.495 258.701C307.444 265.728 303.63 297.117 301.421 301.032C299.547 301.656 280.393 298.635 276.548 298.124C275.322 297.729 271.964 297.43 271.607 296.579C270.405 293.717 272.961 281.183 273.394 278.451C268.999 275.538 264.371 272.358 259.865 269.676C259.779 265.397 259.669 263.907 258.34 259.876C251.558 261.594 241.764 265.415 235.385 261.908C223.816 255.403 225.817 237.342 238.262 233.142C245.863 230.576 254.696 237.766 261.155 241.204C263.502 237.869 264.239 236.313 265.445 232.417C270.261 231.049 275.96 229.21 280.774 228.213C281.653 224.242 282.459 212.65 284.536 210.198C285.897 209.632 287.354 209.905 288.877 210.009ZM306.785 222.819C306.443 227.539 305.504 232.514 304.787 237.233L301.199 260.994C299.831 270.074 298.471 284.003 296.43 292.513C290.359 293.145 284.278 293.345 278.286 293.929C281.177 294.67 282.937 295.14 285.925 295.479L298.928 297.666L311.049 218.11C305.595 217.452 296.811 216.59 291.368 216.513C293.971 218.886 302.89 220.871 306.785 222.819Z"/><path fill="#FED700" d="M278.907 232.836L279.562 232.798L279.974 233.172C280.033 234.814 279.845 235.914 279.628 237.52C278.308 238.352 276.388 239.652 275.246 240.68C271.454 244.047 269.175 248.797 268.921 253.861C268.601 259.985 270.79 264.511 274.781 268.947C274.548 270.618 274.347 272.325 274.135 274.001C271.626 272.707 266.656 269.28 264.044 267.603C263.281 253.859 258.782 255.391 247.701 258.414C241.374 259.669 235.427 259.967 232.539 252.705C231.361 249.743 231.443 246.429 232.768 243.529C234.036 240.791 236.741 237.932 239.611 236.98C246.167 234.961 251.868 241.373 257.271 243.935C264.203 247.221 266.733 240.867 268.785 235.719C272.042 234.695 275.597 233.763 278.907 232.836Z"/><path fill="#FED700" d="M372.278 268.936C382.512 268.127 388.916 275.468 395.386 281.961L410.49 297.155L429.749 316.282C433.692 320.197 438.551 324.648 441.807 329.059C447.109 336.242 447.043 347.755 441.179 354.589C437.367 359.031 433.255 362.967 429.162 367.051L409.136 387.025L395.143 400.998C388.481 407.68 384.449 412.784 374.4 413.855C362.988 414.792 355.507 405.417 348.345 398.145L331.272 380.844L315.036 364.828C308.311 358.161 302.061 353.239 301.01 343.409C299.779 331.892 307.019 325.38 314.469 317.903C325.971 306.36 337.169 294.789 348.902 283.495C357.516 275.407 359.944 270.215 372.278 268.936ZM327.885 368.806C334.975 375.629 342.051 382.969 348.982 389.99C354.205 384.625 360.933 378.531 366.434 373.3L398.684 342.642C403.979 337.614 410.711 331.545 415.632 326.354C416.295 323.236 416.839 318.867 417.305 315.664C417.292 315.277 417.278 314.889 417.265 314.502C412.446 309.104 400.145 298.198 395.642 293.463L342.641 344.557C337.263 349.712 331.668 354.653 326.471 359.984C326.053 360.413 326.527 362.134 326.65 362.672L327.885 368.806Z"/><path fill="#012E4C" d="M326.65 362.672C326.527 362.134 326.053 360.413 326.471 359.984C331.668 354.653 337.263 349.712 342.641 344.557L395.642 293.463C400.145 298.198 412.446 309.104 417.265 314.502C417.278 314.889 417.292 315.277 417.305 315.664C416.839 318.867 416.295 323.236 415.632 326.354C410.711 331.545 403.979 337.614 398.684 342.642L366.434 373.3C360.933 378.531 354.205 384.625 348.982 389.99C342.051 382.969 334.975 375.629 327.885 368.806L326.65 362.672ZM358.868 369.58C359.598 368.195 360.555 367.252 361.875 366.438C360.381 364.073 350.385 355.096 347.756 352.666C346.413 353.83 345.101 354.889 343.933 356.229L358.868 369.58ZM395.414 307.948C394.216 308.95 392.541 310.258 391.494 311.357C393.294 312.742 396.732 315.608 398.378 316.697C397.908 315.399 397.662 314.789 398.028 313.608C399.231 313.018 398.98 313.233 400.559 313.407L395.414 307.948ZM354.925 352.393C357.081 354.346 364.508 361.516 366.621 361.876C367.462 360.592 368.17 359.858 369.488 359.115C366.887 356.1 361.747 351.573 358.689 348.808C357.54 349.886 355.984 351.274 354.925 352.393ZM386.601 342.844C383.604 339.653 379.635 335.897 376.415 332.868C375.204 333.805 373.317 335.191 372.23 336.186C376.345 339.259 379.573 342.885 383.596 345.943C384.73 344.366 384.943 344.017 386.601 342.844ZM343.847 363.371C342.619 364.358 340.993 365.579 339.908 366.671C342.517 369.266 348.231 374.425 351.19 376.692C352.239 375.292 352.935 374.55 354.399 373.562C351.552 370.606 346.967 366.116 343.847 363.371ZM376.52 352.554C376.492 352.172 376.463 351.789 376.434 351.407C373.175 347.749 366.085 341.6 362.964 338.45C361.732 339.384 360.052 340.59 358.923 341.571C361.047 343.636 372.258 354.529 374.309 354.559C374.381 354.56 374.451 354.534 374.523 354.521C375.242 353.318 375.296 353.299 376.52 352.554ZM391.266 338.349C391.78 337.577 392.517 336.835 393.153 336.137L393.439 335.221C392.152 333.495 382.436 324.419 380.352 322.38C378.979 323.348 377.667 324.236 376.386 325.328C378.921 327.53 389.255 337.052 391.266 338.349ZM387.629 321.753C389.012 322.896 396.575 329.364 397.578 329.601C397.426 329.379 397.29 329.13 397.099 328.967L397.406 327.708C398.226 327.661 398.921 328.23 399.673 328.677C400.684 326.757 395.213 322.993 394.096 321.451C393.773 321.006 391.671 319.181 391.188 318.996C390.004 319.869 388.707 320.767 387.629 321.753Z"/><path fill="#001B2F" d="M409.628 321.163C410.774 320.847 416.075 316.685 417.305 315.664C416.839 318.867 416.295 323.236 415.632 326.354C410.711 331.545 403.979 337.614 398.684 342.642L366.434 373.3C360.933 378.531 354.205 384.625 348.982 389.99C342.051 382.969 334.975 375.629 327.885 368.806L326.65 362.672C331.528 364.425 342.576 376.729 347.034 381.083C348.189 380.046 350.763 377.981 351.19 376.692C352.239 375.292 352.935 374.55 354.399 373.562C355.618 373.22 358.352 370.764 358.868 369.58C359.598 368.195 360.555 367.252 361.875 366.438C363.086 366.546 365.891 363.32 366.746 362.325L366.621 361.876C367.462 360.592 368.17 359.858 369.488 359.115L369.954 359.143C371.371 358.166 373.918 356.13 374.523 354.521C375.242 353.318 375.296 353.299 376.52 352.554L377.034 352.613C378.421 351.469 382.993 347.517 383.596 345.943C384.73 344.366 384.943 344.017 386.601 342.844C388.043 342.315 390.868 339.824 391.266 338.349C391.78 337.577 392.517 336.835 393.153 336.137L393.866 336.249C396.772 334.54 398.133 331.996 400.604 329.753C402.825 327.737 404.944 327.237 406.188 324.364C407.249 322.928 408.242 322.189 409.628 321.163Z"/><path fill="#FDFEFE" d="M398.378 316.697C397.908 315.399 397.662 314.789 398.028 313.608C399.231 313.018 398.98 313.233 400.559 313.407C401.892 313.48 408.334 319.923 409.628 321.163C408.242 322.189 407.249 322.928 406.188 324.364C404.996 323.31 398.369 317.755 398.378 316.697Z"/><path fill="#FED700" d="M369.199 83.4334C383.338 82.0105 388.169 89.2232 397.272 98.3203L415.626 116.8L431.275 132.271C434.671 135.624 438.17 138.939 441.226 142.617C446.137 148.48 447.645 160.355 442.62 166.734C435.187 176.171 424.726 185.757 416.132 194.379L397.85 212.734C391.364 219.168 385.906 225.8 376.588 227.814C371.712 229.267 363.444 226.376 359.732 223.26C354.496 218.865 349.453 213.414 344.629 208.54L329.477 193.418C321.676 185.654 313.647 178.068 306.19 169.981C302.379 165.849 301.078 160.943 300.887 155.457C300.501 144.389 309.26 137.635 316.326 130.621L336.109 110.79L350.035 96.7439C357.387 89.3204 359.051 86.4365 369.199 83.4334Z"/><path fill="#012E4C" d="M342.016 111.534C359.839 120.983 379.633 129.861 397.258 139.893C398.928 140.844 400.272 143.018 401.291 144.672C405.637 146.933 414.216 150.952 418.059 153.317C418.055 157.182 418.237 166.631 417.713 170.083C417.488 173.616 416.82 178.192 416.217 181.666C413.733 184.469 408.276 189.083 405.331 191.71C398.457 197.794 391.622 203.924 384.828 210.098C379.302 206.17 371.154 201.411 365.272 197.747L330.241 175.935C324.917 172.625 316.262 167.576 311.542 164.018C310.14 159.973 308.416 152.169 307.843 148.013L307.784 146.986C310.272 141.046 335.521 118.158 342.016 111.534Z"/><path fill="#DAD9D9" d="M385.986 149.686C387.39 148.278 394.079 143.334 396.007 141.845C398.008 143.12 399.123 143.672 401.291 144.672C405.637 146.933 414.216 150.952 418.059 153.317C418.055 157.182 418.237 166.631 417.713 170.083C408.856 177.383 399.581 185.649 390.937 193.254C385.494 189.663 379.841 186.636 374.327 183.216C372.87 182.365 372.339 182.053 371.02 180.942C371.943 173.548 372.91 166.16 373.922 158.778C375.95 156.989 383.87 150.781 385.986 149.686Z"/><path fill="#FDFEFE" d="M385.986 149.686C387.39 148.278 394.079 143.334 396.007 141.845C398.008 143.12 399.123 143.672 401.291 144.672C405.637 146.933 414.216 150.952 418.059 153.317C418.055 157.182 418.237 166.631 417.713 170.083C408.856 177.383 399.581 185.649 390.937 193.254C385.494 189.663 379.841 186.636 374.327 183.216C372.87 182.365 372.339 182.053 371.02 180.942C371.463 180.33 371.492 180.369 372.15 179.972C374.453 180.221 387.689 188.949 390.956 190.807L407.576 176.59C410.149 174.39 414.533 170.877 416.612 168.448C416.892 165.137 416.546 157.713 416.499 154.128C408.845 158.775 400.522 163.606 393.055 168.453C392.07 174.63 392.281 181.4 391.183 187.956C390.055 184.183 389.555 173.762 389.122 169.173C385.896 166.499 381.671 164.065 378.146 161.345C380.863 158.188 384.369 155.224 386.58 151.733C387.109 150.898 388.568 149.127 388.683 148.533C387.594 149.321 387.335 149.667 385.986 149.686Z"/><path fill="#F4E77C" d="M307.843 148.013C328.672 160.397 350.618 173.053 371.168 185.738L374.327 183.216C379.841 186.636 385.494 189.663 390.937 193.254C399.581 185.649 408.856 177.383 417.713 170.083C417.488 173.616 416.82 178.192 416.217 181.666C413.733 184.469 408.276 189.083 405.331 191.71C398.457 197.794 391.622 203.924 384.828 210.098C379.302 206.17 371.154 201.411 365.272 197.747L330.241 175.935C324.917 172.625 316.262 167.576 311.542 164.018C310.14 159.973 308.416 152.169 307.843 148.013Z"/><path fill="#FED700" d="M475.808 280.227C468.523 286.989 453.484 294.564 443.756 289.273C439.382 286.894 441.189 284.694 439.442 283.377L438.821 283.568C437.321 285.795 438.497 290.927 440.352 292.748C442.451 294.808 445.056 295.551 447.92 295.576C470.057 295.786 484.964 276.626 499.163 262.64C505.236 256.658 521.746 250.364 529.976 253.836C533.205 255.198 538.098 258.818 534.657 262.37C524.49 272.865 514.035 283.068 503.718 293.408L490.261 306.905C487.741 309.438 485.255 312.069 482.518 314.477C475.604 320.558 464.265 321.719 456.549 316.495C451.722 313.226 446.446 307.395 442.235 303.16L422.49 283.218C415.153 275.808 407.05 268.153 400.181 260.446C397.089 256.312 395.113 249.448 395.874 244.449C397.312 235.004 404.544 229.236 410.929 222.874L426.649 207.01L442.327 190.879C450.633 182.312 457.956 173.29 471.285 175.173C479.997 176.404 484.006 181.749 489.742 187.57L503.196 201.069L524.896 222.504C537.303 234.965 542.56 237.553 539.684 255.796C534.651 252.268 533.329 248.789 525.547 248.451C511.97 247.862 500.115 256.076 490.515 264.617C489.008 266.582 477.423 278.917 475.808 280.227Z"/><defs><linearGradient id="gradient_0" gradientUnits="userSpaceOnUse" x1="492.64355" y1="263.73505" x2="477.23123" y2="246.65474"><stop offset="0" stop-color="#021527"/><stop offset="1" stop-color="#003759"/></linearGradient></defs><path fill="url(#gradient_0)" d="M510.985 215.046L517.757 221.767C517.305 224.388 516.528 234.37 515.763 235.432C509.336 244.351 497.328 255.955 490.368 264.105L490.515 264.617C489.008 266.582 477.423 278.917 475.808 280.227C469.882 280.402 463.833 281.169 457.923 281.661C455.557 281.858 451.648 282.373 449.413 282.289C447.968 281.719 447.801 282.132 446.321 281.021L453.917 278.215C457.756 276.673 461.92 275.439 465.755 273.861C467.678 273.069 468.678 272.793 469.457 270.882C472.43 272.748 475.481 270.416 478.34 268.963C476.593 268.958 474.376 269.081 472.831 268.169C471.557 267.417 471.071 265.384 471.966 264.162C475.68 259.095 479.723 254.219 483.655 249.311C492.837 237.947 501.947 226.525 510.985 215.046Z"/><path fill="#012E4C" d="M441.837 269.216C442.105 266.155 443.025 255.374 443.987 253.168C449.038 250.408 449.914 259.454 452.782 261.768C455.834 264.231 459.757 262.636 463.267 262.586C467.3 262.528 466.173 265.433 467.114 268.099C467.373 268.804 468.874 270.288 469.457 270.882C468.678 272.793 467.678 273.069 465.755 273.861C461.92 275.439 457.756 276.673 453.917 278.215C452.942 273.701 446.176 269.793 441.837 269.216Z"/><path fill="#2D3312" d="M439.123 283.462L446.321 281.021C447.801 282.132 447.968 281.719 449.413 282.289C446.324 282.873 442.25 283.213 439.123 283.462Z"/><path fill="#012E4C" d="M498.967 203.166C500.447 204.175 506.205 210.232 507.68 211.744L468.953 259.776C467.673 258.903 466.84 258.689 465.396 258.175C462.781 257.913 457.426 258.629 454.492 258.92C459.995 252.589 466.29 244.244 471.601 237.595C480.796 226.177 489.918 214.701 498.967 203.166Z"/><path fill="#012E4C" d="M489.993 194.452C491.159 195.032 494.614 198.698 495.715 199.823L452.554 253.329L451.933 253.806C449.908 251.409 454.575 248.161 447.632 244.134C453.826 237.391 460.297 229.485 466.278 222.471C474.269 213.205 482.174 203.865 489.993 194.452Z"/><path fill="#012E4C" d="M443.393 431.591C448.22 429.433 460.189 425.586 465.505 423.902C468.915 432.244 471.792 442.049 474.835 450.664C476.55 455.518 480.563 465.692 481.248 470.299C480.267 471.616 470.941 474.276 468.716 474.973C467.321 475.533 465.539 476.305 464.154 476.788C463.368 474.666 461.591 467.761 460.212 467.004C458.943 469.201 460.807 475.277 459.581 477.613C459.044 478.636 453.4 480.404 452.086 480.731C449.788 481.761 448.76 482.066 446.279 482.618C443.877 479.492 441.975 476.098 439.425 473.164L439.514 473.718C440.074 477.107 442.236 481.425 441.597 483.935C440.582 485.014 440.888 484.679 439.23 485.118C436.005 486.58 429.817 488.575 426.156 489.949C423.832 485.22 410.756 447.248 410.5 443.275C411.592 441.926 429.654 436.139 432.724 435.089C434.558 437.306 442.702 450.194 443.891 450.345C444.81 447.694 443.416 435.582 443.393 431.591Z"/><defs><linearGradient id="gradient_1" gradientUnits="userSpaceOnUse" x1="448.32251" y1="463.85199" x2="462.4906" y2="461.77576"><stop offset="0" stop-color="#0A3C53"/><stop offset="1" stop-color="#1E5469"/></linearGradient></defs><path fill="url(#gradient_1)" d="M456.297 444.88C458.913 454.695 461.935 464.383 465.246 473.998C465.516 474.781 467.899 474.854 468.716 474.973C467.321 475.533 465.539 476.305 464.154 476.788C463.368 474.666 461.591 467.761 460.212 467.004C458.943 469.201 460.807 475.277 459.581 477.613C459.044 478.636 453.4 480.404 452.086 480.731L449.938 479.867C451.571 478.957 455.728 477.652 457.67 476.983C457.746 465.526 456.645 456.09 456.297 444.88Z"/><path fill="#15475D" d="M439.23 485.118L439.369 484.421C440.179 484.115 440.297 484.097 441.007 483.62C441.508 480.889 437.66 474.621 439.282 472.911C441.319 473.332 444.919 479.286 446.367 481.314L446.676 481.262C445.028 477.891 441.921 473.724 439.665 470.659C438.606 469.22 438.177 467.738 436.8 466.134C435.628 464.761 434.66 463.225 433.927 461.575L434.287 461.401C436.593 463.373 443.956 477.487 447.326 480.049C448.129 480.659 449.024 480.154 449.938 479.867L452.086 480.731C449.788 481.761 448.76 482.066 446.279 482.618C443.877 479.492 441.975 476.098 439.425 473.164L439.514 473.718C440.074 477.107 442.236 481.425 441.597 483.935C440.582 485.014 440.888 484.679 439.23 485.118Z"/><path fill="#012E4C" d="M367.034 443.184C381.269 441.586 395.041 448.978 396.561 464.121C398.324 481.693 390.542 492.508 372.953 494.56C365.776 495.125 357.248 493.534 351.338 488.932C340.957 480.848 340.421 461.43 348.332 451.519C353.061 445.596 359.665 443.833 367.034 443.184ZM371.894 479.344C376.949 477.163 377.871 472.973 377.918 467.918C377.976 461.733 374.885 457.46 368.266 458.043C363.767 459.397 362.427 462.565 362.136 467.013C361.68 473.97 363.104 480.981 371.894 479.344Z"/><path fill="#012E4C" d="M257.747 409.944C258.54 408.855 258.034 409.167 259.243 408.868C266.946 411.257 286.554 423.44 290.731 430.666C293.253 435.03 292.901 442.223 291.219 446.819C282.96 469.388 266.787 471.873 247.892 459.067C245.463 457.42 235.965 453.064 235.022 451.392C235.08 450.512 235.007 450.437 235.419 449.68C237.198 445.669 242.866 436.172 245.314 431.758C248.213 426.53 254.448 414.393 257.747 409.944ZM265.021 450.365C268.835 449.361 271.673 445.316 273.116 441.784C275.424 436.134 272.817 432.612 267.764 430.209C265.678 433.317 259.576 444.401 258.073 447.883C260.889 449.49 261.704 450.013 265.021 450.365Z"/><path fill="#15475D" d="M257.747 409.944C257.98 410.146 258.775 410.667 258.64 410.971C256.426 415.932 238.642 449.325 236.451 450.66C235.72 450.157 235.932 450.388 235.419 449.68C237.198 445.669 242.866 436.172 245.314 431.758C248.213 426.53 254.448 414.393 257.747 409.944Z"/><path fill="#012E4C" d="M151.905 261.807C155.671 255.788 165.586 254.329 171.296 258.275C176.586 261.932 179.565 268.373 180.841 274.521C182.683 283.075 181.478 296.244 171.746 299.673C169.172 300.56 168.315 300.729 165.601 301.1C165.233 299.639 165.048 297.72 164.849 296.196C164.514 294.718 164.738 294.354 163.828 293.759C161.98 294.896 161.426 298.426 158.957 300.445C155.257 306.004 143.45 305.63 138.682 301.788C135.296 299.059 132.624 295.802 131.805 291.464L131.726 291.268C127.143 280.106 128.286 260.405 142.996 258.271C144.236 258.091 145.712 257.544 146.847 258.273C147.54 259.791 148.173 264.69 148.547 266.684C149.707 264.611 150.399 263.598 151.905 261.807Z"/><path fill="#15475D" d="M151.905 261.807C155.671 255.788 165.586 254.329 171.296 258.275C176.586 261.932 179.565 268.373 180.841 274.521C182.683 283.075 181.478 296.244 171.746 299.673C170.554 299.684 170.327 299.711 169.186 299.435C170.258 298.512 172.433 297.628 173.504 296.65C182.966 288.008 178.914 259.449 164.087 258.43C159.814 258.136 156.138 260.049 153.15 262.798C152.434 263.062 152.185 263.732 151.347 264.412C151.255 263.68 151.615 263.508 152.174 262.695L151.905 261.807Z"/><path fill="#15475D" d="M131.805 291.464L131.726 291.268C127.143 280.106 128.286 260.405 142.996 258.271C144.236 258.091 145.712 257.544 146.847 258.273C147.54 259.791 148.173 264.69 148.547 266.684C149.707 264.611 150.399 263.598 151.905 261.807L152.174 262.695C151.615 263.508 151.255 263.68 151.347 264.412C152.185 263.732 152.434 263.062 153.15 262.798C149.486 269.1 151.294 284.879 147.527 287.724C145.231 287.96 143.52 285.824 144.269 283.859L144.832 283.814L145.871 285.165L146.366 285.026C147.971 281.979 147.522 278.369 145.372 275.708C145.639 274.778 146.31 274.409 147.088 273.776C147.726 270.367 146.151 264.621 146.107 261.082L146.319 261.211C146.436 263.078 146.305 264.668 147.421 266.114L147.265 265.995L147.833 265.96C146.304 263.406 147.395 260.492 146.296 259.028C138.707 257.617 130.876 265.641 130.542 272.894C130.41 275.754 130.075 278.39 130.488 281.269C130.599 283.431 132.153 290.163 131.805 291.464Z"/><path fill="#15475D" d="M158.957 300.445C158.245 300.27 158.188 300.512 157.259 300.778C164.523 295.615 159.127 273.351 165.899 273.754C168.442 275.296 169.574 278.203 168.818 281.096C168.072 283.954 167.116 284.51 164.738 285.858C164.769 288.663 166.064 294.441 164.849 296.196C164.514 294.718 164.738 294.354 163.828 293.759C161.98 294.896 161.426 298.426 158.957 300.445Z"/><path fill="#012E4C" d="M212.499 362.95C214.35 363.694 225.567 375.503 224.486 376.76C220.134 381.822 214.101 386.222 209.263 390.95C206.099 394.041 199.238 398.954 202.333 404.034C204.372 406.325 207.845 408.438 210.783 406.144C218.826 399.867 225.966 392.042 233.762 385.407C234.334 385.923 234.894 386.453 235.441 386.995C237.563 389.102 245.495 396.998 245.484 399.619C244.6 401.164 243.072 402.227 241.674 403.397C225.128 417.8 211.192 439.114 189.519 411.756C177.465 396.539 186.644 384.936 199.26 374.806C203.464 371.431 207.798 366.236 212.499 362.95Z"/><path fill="#012E4C" d="M584.135 256.918C587.312 256.603 590.422 256.929 593.601 257.162C593.429 261.112 591.654 271.149 590.884 275.214C587.719 274.694 583.397 274.13 581.929 277.984C579.224 286.242 586.841 287.782 593.248 288.576C599.143 289.307 605.031 285.755 602.476 278.934C601.705 276.877 597.544 275.931 595.4 275.381C595.832 270.508 597.088 262.644 597.91 257.783C608.433 259.894 614.439 262.896 617.506 273.679C620.399 286.837 614.382 304.68 599.482 307.03C586.297 309.109 568.643 303.851 566.392 288.728C564.423 275.497 569.167 259.319 584.135 256.918Z"/><path fill="#012E4C" d="M488.171 408.135C489.955 405.757 500.579 397.079 503.406 395.962C504.38 395.577 514.291 401.796 516.003 402.872C526.28 409.328 537.055 415.384 547.178 422.091C547.379 422.225 547.578 422.494 547.735 422.69C546.668 424.853 535.377 433.555 532.965 435.15C530.958 433.885 529.944 433.13 528.102 431.627C525.384 433.24 518.663 439.098 517.59 439.612C518.198 441.655 518.818 443.694 519.451 445.729C517.08 448.159 507.229 456.026 504.492 457.692C501.538 448.477 498.529 439.279 495.465 430.1C493.865 425.33 491.826 419.846 490.512 415.058C489.732 413.583 488.709 409.884 488.171 408.135ZM514.31 424.102C515.048 421.934 511.892 420.499 510.146 419.635C510.473 421.838 510.386 423.73 512.05 425.019C513.378 424.957 513.026 424.925 514.31 424.102Z"/><path fill="#15475D" d="M488.171 408.135C489.955 405.757 500.579 397.079 503.406 395.962C504.38 395.577 514.291 401.796 516.003 402.872C526.28 409.328 537.055 415.384 547.178 422.091C547.379 422.225 547.578 422.494 547.735 422.69C546.668 424.853 535.377 433.555 532.965 435.15C530.958 433.885 529.944 433.13 528.102 431.627C525.384 433.24 518.663 439.098 517.59 439.612L517.516 439.182C518.049 438.238 518.908 437.305 519.617 436.464L519.433 436.548C521.955 433.923 524.918 431.61 527.735 429.291C529.652 430.204 531.638 431.772 533.379 433.048C536.704 430.266 539.438 427.392 543.007 424.971L543.047 425.405L541.46 427.107L541.798 427.225C543.096 425.877 546.228 424.022 546.739 422.819L546.385 422.205C542.82 420.5 541.228 418.98 538.07 417.049L519.78 406.081C514.803 403.029 508.567 398.93 503.47 396.422C500.684 398.165 491.233 405.931 488.963 408.291L490.869 414.451L490.512 415.058C489.732 413.583 488.709 409.884 488.171 408.135Z"/><path fill="#15475D" d="M504.765 413.354C506.222 413.674 515.601 420.928 518.424 422.587L515.554 425.144C514.196 426.299 512.3 427.664 510.849 428.771C509.304 424.016 506.703 417.983 504.765 413.354ZM514.31 424.102C515.048 421.934 511.892 420.499 510.146 419.635C510.473 421.838 510.386 423.73 512.05 425.019C513.378 424.957 513.026 424.925 514.31 424.102Z"/><path fill="#012E4C" d="M171.979 314.849C175.914 312.466 181.45 310.267 185.79 308.238C188.656 313.404 204.79 348.417 205.453 352.289C204.628 353.762 194.829 358.068 192.513 359.178C189.82 354.736 188.449 350.224 185.719 345.718C183.25 346.803 175.443 350.534 173.558 351.141C167.449 354.162 161.296 357.091 155.099 359.927C153.793 357.549 152.98 355.702 151.901 353.217C150.626 350.722 147.952 346.031 147.796 343.426C148.74 341.318 173.948 330.835 178.179 328.232C176.592 326.215 172.682 317.434 171.979 314.849Z"/><path fill="#15475D" d="M151.901 353.217C150.626 350.722 147.952 346.031 147.796 343.426C148.74 341.318 173.948 330.835 178.179 328.232C179.318 328.877 179.362 328.639 179.675 329.563C178.779 330.678 152.949 342.486 149.698 343.868C150.754 346.631 151.68 349.142 152.994 351.806L151.901 353.217Z"/><path fill="#15475D" d="M155.779 357.911C159.44 355.781 162.437 354.412 166.448 353.108L164.505 354.094C167.166 353.239 171.559 350.88 173.558 351.141C167.449 354.162 161.296 357.091 155.099 359.927C153.793 357.549 152.98 355.702 151.901 353.217L152.994 351.806L155.779 357.911Z"/><path fill="#012E4C" d="M547.088 343.185C550.457 345.445 555.659 348.829 558.431 351.643L558.896 352.221C558.448 354.434 552.767 361.563 551.112 364.389C556.61 368.844 562.954 372.821 568.696 377.015C571.122 378.786 575.277 381.538 577.315 383.646C577.803 384.037 577.582 383.881 577.722 384.828C577.087 386.647 569.39 397.134 567.748 399.125C564.699 397.544 559.979 393.943 557.111 391.852C551.424 387.705 545.914 383.559 540.107 379.557C537.334 382.48 533.512 389.579 531.061 390.673C528.388 390.798 521.481 384.856 518.868 382.894C520.366 379.168 543.796 347.057 547.088 343.185Z"/><defs><linearGradient id="gradient_2" gradientUnits="userSpaceOnUse" x1="570.21692" y1="363.98151" x2="560.54919" y2="374.87109"><stop offset="0" stop-color="#012E4A"/><stop offset="1" stop-color="#174B60"/></linearGradient></defs><path fill="url(#gradient_2)" d="M558.431 351.643L558.896 352.221C558.448 354.434 552.767 361.563 551.112 364.389C556.61 368.844 562.954 372.821 568.696 377.015C571.122 378.786 575.277 381.538 577.315 383.646C576.811 384.188 576.833 384.149 576.155 384.462C568.459 379.686 556.193 370.595 548.454 365.049C550.037 361.93 555.571 354.372 558.062 351.998L558.431 351.643Z"/><path fill="#012E4C" d="M558.396 314.815C559.716 315.34 561.011 315.759 562.15 316.588C565.053 317.742 584.247 325.398 585.744 326.425C590.606 328.064 599.594 331.833 604.254 334.067C603.386 336.363 598.695 348.302 597.706 349.96L597.118 350.715C595.247 351.148 577.316 343.157 574.49 341.907C566.987 338.591 558.519 335.497 551.131 332.029C553.057 327.12 555.924 319.338 558.396 314.815Z"/><path fill="#15475D" d="M586.715 328.586C577.885 325.872 567.173 319.724 558.474 316.682C559.128 315.441 560.697 317.331 562.15 316.588C565.053 317.742 584.247 325.398 585.744 326.425C590.606 328.064 599.594 331.833 604.254 334.067C603.386 336.363 598.695 348.302 597.706 349.96C595.909 348.756 603.629 336.997 602.758 334.227C601.929 334.878 602.48 335.456 601.537 336.674C601.608 336.184 601.682 335.695 601.759 335.207C601.256 334.439 588.574 329.439 586.715 328.586Z"/><path fill="#012E4C" d="M313.039 434.828C315.648 435.118 328.148 438.486 330.44 439.544C330.871 443.073 326.665 455.464 325.457 459.874C323.003 468.836 320.832 478.547 317.973 487.327C311.886 485.779 305.891 484.253 299.93 482.262L307.304 455.46C308.968 449.178 310.949 440.812 313.039 434.828Z"/></svg>